<svg width="173" height="174" viewBox="0 0 173 174" fill="none" xmlns="http://www.w3.org/2000/svg">
<path d="M35.0513 75.9951H8.08875C3.6214 75.9951 0 79.6165 0 84.0838V164.971C0 169.439 3.6214 173.06 8.08875 173.06H35.0513C39.5186 173.06 43.14 169.439 43.14 164.971V84.0838C43.14 79.6165 39.5186 75.9951 35.0513 75.9951ZM21.57 159.579C17.1027 159.579 13.4813 155.957 13.4813 151.49C13.4813 147.023 17.1027 143.401 21.57 143.401C26.0374 143.401 29.6588 147.023 29.6588 151.49C29.6588 155.957 26.0374 159.579 21.57 159.579ZM129.42 27.9519C129.42 42.2474 120.667 50.2661 118.205 59.8175H152.489C163.744 59.8175 172.507 69.1688 172.56 79.3984C172.588 85.4441 170.017 91.9525 166.008 95.9793L165.971 96.0164C169.286 103.882 168.747 114.903 162.834 122.8C165.76 131.527 162.811 142.248 157.313 147.995C158.761 153.927 158.069 158.974 155.241 163.038C148.362 172.921 131.313 173.06 116.896 173.06L115.937 173.06C99.6626 173.054 86.3434 167.129 75.6413 162.367C70.2633 159.975 63.2315 157.013 57.8963 156.915C55.6921 156.875 53.925 155.076 53.925 152.871V80.824C53.925 79.7455 54.3571 78.7105 55.1242 77.9522C68.4754 64.7594 74.2163 50.7918 85.1594 39.8302C90.1488 34.8314 91.9634 27.2805 93.7177 19.9784C95.2164 13.743 98.3515 0.5 105.154 0.5C113.243 0.5 129.42 3.19625 129.42 27.9519Z" fill="white"/>
</svg>
