<svg width="173" height="185" viewBox="0 0 173 185" fill="none" xmlns="http://www.w3.org/2000/svg">
<path d="M167.624 103.565C170.777 98.2265 172.56 92.532 172.56 85.6476C172.56 69.8242 159.18 54.8816 141.708 54.8816H128.593C130.362 50.2764 131.775 44.7688 131.775 38.1504C131.775 11.981 118.225 0.5 97.5252 0.5C75.3774 0.5 76.6407 34.6284 71.7274 39.5417C63.5499 47.7192 53.8908 63.4294 47.0082 69.524H11.504C5.15056 69.524 0 74.6746 0 81.028V167.308C0 173.661 5.15056 178.812 11.504 178.812H34.512C39.866 178.812 44.3652 175.154 45.6486 170.202C61.6496 170.562 72.6327 184.56 109.568 184.56C112.164 184.56 115.04 184.564 117.556 184.564C145.28 184.564 157.815 170.391 158.158 150.293C162.947 143.669 165.456 134.79 164.392 126.21C167.935 119.576 169.304 111.707 167.624 103.565ZM145.425 122.917C149.94 130.513 145.878 140.68 140.414 143.613C143.182 161.15 134.083 167.304 121.317 167.304H107.721C81.9664 167.304 65.2892 153.708 46.016 153.708V86.78H49.9417C60.1372 86.78 74.3806 61.295 83.9289 51.7431C94.1243 41.5477 90.727 24.5541 97.5252 17.756C114.519 17.756 114.519 29.6123 114.519 38.1504C114.519 52.232 104.323 58.5413 104.323 72.1376H141.708C149.297 72.1376 155.272 78.9357 155.304 85.7339C155.336 92.5284 150.695 99.3265 147.298 99.3265C152.147 104.559 153.183 115.589 145.425 122.917ZM31.636 155.804C31.636 160.569 27.7732 164.432 23.008 164.432C18.2428 164.432 14.38 160.569 14.38 155.804C14.38 151.039 18.2428 147.176 23.008 147.176C27.7732 147.176 31.636 151.039 31.636 155.804Z" fill="white"/>
</svg>
